<?xml version="1.0" encoding="UTF-8"?>
<svg xmlns="http://www.w3.org/2000/svg" xmlns:xlink="http://www.w3.org/1999/xlink" width="64pt" height="64pt" viewBox="0 0 64 64" version="1.1">
<defs>
<linearGradient id="linear0" gradientUnits="userSpaceOnUse" x1="83.30981" y1="43" x2="83.30981" y2="148.73163" gradientTransform="matrix(0.372093,0,0,0.372093,0,0)">
<stop offset="0" style="stop-color:rgb(100%,100%,100%);stop-opacity:1;"/>
<stop offset="1" style="stop-color:rgb(72.156863%,72.156863%,72.156863%);stop-opacity:1;"/>
</linearGradient>
<linearGradient id="linear1" gradientUnits="userSpaceOnUse" x1="86" y1="13.4375" x2="86" y2="159.01131" gradientTransform="matrix(0.372093,0,0,0.372093,0,0)">
<stop offset="0" style="stop-color:rgb(90.196078%,90.196078%,90.196078%);stop-opacity:1;"/>
<stop offset="1" style="stop-color:rgb(50.196078%,50.196078%,50.196078%);stop-opacity:1;"/>
</linearGradient>
</defs>
<g id="surface20203580">
<path style=" stroke:none;fill-rule:nonzero;fill:url(#linear0);" d="M 25.007812 56.007812 C 25.003906 55.640625 25.003906 54.046875 25 52.554688 L 24.996094 51.003906 C 18.265625 51.917969 16.636719 47.222656 16.621094 47.171875 C 15.6875 44.804688 14.410156 44.128906 14.355469 44.101562 L 14.230469 44.027344 C 13.765625 43.710938 12.539062 42.871094 12.886719 41.765625 C 13.203125 40.769531 14.425781 40.664062 14.980469 40.683594 C 18.054688 40.898438 19.609375 43.660156 19.671875 43.777344 C 21.242188 46.46875 23.636719 46.1875 25.183594 45.621094 C 25.324219 44.933594 25.550781 44.300781 25.839844 43.742188 C 20.886719 42.863281 15.269531 40.230469 15.269531 30.640625 C 15.269531 28.007812 16.089844 25.679688 17.710938 23.710938 C 17.347656 22.503906 16.9375 20.046875 18.15625 16.945312 L 18.332031 16.503906 L 18.78125 16.359375 C 19.199219 16.222656 21.472656 15.734375 26.140625 18.792969 C 28.070312 18.300781 30.109375 18.042969 32.214844 18.035156 C 34.332031 18.042969 36.375 18.300781 38.304688 18.792969 C 42.972656 15.734375 45.238281 16.226562 45.65625 16.359375 L 46.109375 16.503906 L 46.28125 16.945312 C 47.507812 20.042969 47.09375 22.503906 46.734375 23.710938 C 48.351562 25.675781 49.171875 28.003906 49.171875 30.640625 C 49.171875 40.230469 43.550781 42.859375 38.582031 43.726562 C 39.144531 44.792969 39.449219 46.128906 39.449219 47.605469 C 39.449219 49.289062 39.445312 54.808594 39.4375 56.007812 L 37.4375 55.992188 C 37.445312 54.796875 37.449219 49.285156 37.449219 47.605469 C 37.449219 45.160156 36.507812 44.082031 36.101562 43.730469 L 34.371094 42.234375 L 36.644531 41.980469 C 41.851562 41.402344 47.171875 39.601562 47.171875 30.640625 C 47.171875 28.308594 46.394531 26.277344 44.859375 24.601562 L 44.429688 24.132812 L 44.671875 23.546875 C 44.839844 23.144531 45.566406 21.105469 44.628906 18.257812 C 43.871094 18.300781 42.0625 18.65625 39.046875 20.703125 L 38.660156 20.960938 L 38.214844 20.839844 C 36.351562 20.320312 34.277344 20.042969 32.214844 20.03125 C 30.164062 20.042969 28.089844 20.320312 26.230469 20.839844 L 25.785156 20.960938 L 25.402344 20.703125 C 22.382812 18.660156 20.570312 18.300781 19.808594 18.253906 C 18.875 21.105469 19.601562 23.144531 19.769531 23.546875 L 20.011719 24.132812 L 19.582031 24.601562 C 18.046875 26.285156 17.269531 28.316406 17.269531 30.640625 C 17.269531 39.597656 22.578125 41.410156 27.773438 42 L 30.023438 42.257812 L 28.316406 43.746094 C 27.945312 44.070312 27.285156 44.859375 27.0625 46.472656 L 26.988281 47.023438 L 26.480469 47.25 C 25.160156 47.839844 20.640625 49.410156 17.933594 44.765625 C 17.917969 44.738281 17.390625 43.820312 16.429688 43.207031 C 17.078125 43.847656 17.863281 44.878906 18.5 46.492188 C 18.566406 46.683594 19.855469 50.117188 25.777344 48.832031 L 26.984375 48.570312 L 26.996094 52.550781 C 27 54.035156 27.003906 55.625 27.007812 55.992188 Z M 25.007812 56.007812 "/>
<path style=" stroke:none;fill-rule:nonzero;fill:url(#linear1);" d="M 32 58 C 17.664062 58 6 46.335938 6 32 C 6 17.664062 17.664062 6 32 6 C 46.335938 6 58 17.664062 58 32 C 58 46.335938 46.335938 58 32 58 Z M 32 8 C 18.765625 8 8 18.765625 8 32 C 8 45.234375 18.765625 56 32 56 C 45.234375 56 56 45.234375 56 32 C 56 18.765625 45.234375 8 32 8 Z M 32 8 "/>
</g>
</svg>
